<svg width="260" height="25" viewBox="0 0 260 25" fill="none" xmlns="http://www.w3.org/2000/svg">
<path d="M7.9375 19L2.125 3.8125H2.03125C2.14062 5.01562 2.19531 6.44531 2.19531 8.10156V19H0.355469V1.86719H3.35547L8.78125 16H8.875L14.3477 1.86719H17.3242V19H15.332V7.96094C15.332 6.69531 15.3867 5.32031 15.4961 3.83594H15.4023L9.54297 19H7.9375ZM29.6406 19L29.2539 17.1719H29.1602C28.5195 17.9766 27.8789 18.5234 27.2383 18.8125C26.6055 19.0938 25.8125 19.2344 24.8594 19.2344C23.5859 19.2344 22.5859 18.9062 21.8594 18.25C21.1406 17.5938 20.7812 16.6602 20.7812 15.4492C20.7812 12.8555 22.8555 11.4961 27.0039 11.3711L29.1836 11.3008V10.5039C29.1836 9.49609 28.9648 8.75391 28.5273 8.27734C28.0977 7.79297 27.4062 7.55078 26.4531 7.55078C25.3828 7.55078 24.1719 7.87891 22.8203 8.53516L22.2227 7.04688C22.8555 6.70312 23.5469 6.43359 24.2969 6.23828C25.0547 6.04297 25.8125 5.94531 26.5703 5.94531C28.1016 5.94531 29.2344 6.28516 29.9688 6.96484C30.7109 7.64453 31.082 8.73438 31.082 10.2344V19H29.6406ZM25.2461 17.6289C26.457 17.6289 27.4062 17.2969 28.0938 16.6328C28.7891 15.9688 29.1367 15.0391 29.1367 13.8438V12.6836L27.1914 12.7656C25.6445 12.8203 24.5273 13.0625 23.8398 13.4922C23.1602 13.9141 22.8203 14.5742 22.8203 15.4727C22.8203 16.1758 23.0312 16.7109 23.4531 17.0781C23.8828 17.4453 24.4805 17.6289 25.2461 17.6289ZM37.0234 12.4258C37.3594 11.9492 37.8711 11.3242 38.5586 10.5508L42.707 6.15625H45.0156L39.8125 11.6289L45.3789 19H43.0234L38.4883 12.9297L37.0234 14.1953V19H35.1016V0.765625H37.0234V10.4336C37.0234 10.8633 36.9922 11.5273 36.9297 12.4258H37.0234ZM53.1367 19.2344C51.2383 19.2344 49.7383 18.6562 48.6367 17.5C47.543 16.3438 46.9961 14.7383 46.9961 12.6836C46.9961 10.6133 47.5039 8.96875 48.5195 7.75C49.543 6.53125 50.9141 5.92188 52.6328 5.92188C54.2422 5.92188 55.5156 6.45312 56.4531 7.51562C57.3906 8.57031 57.8594 9.96484 57.8594 11.6992V12.9297H49.0117C49.0508 14.4375 49.4297 15.582 50.1484 16.3633C50.875 17.1445 51.8945 17.5352 53.207 17.5352C54.5898 17.5352 55.957 17.2461 57.3086 16.668V18.4023C56.6211 18.6992 55.9688 18.9102 55.3516 19.0352C54.7422 19.168 54.0039 19.2344 53.1367 19.2344ZM52.6094 7.55078C51.5781 7.55078 50.7539 7.88672 50.1367 8.55859C49.5273 9.23047 49.168 10.1602 49.0586 11.3477H55.7734C55.7734 10.1211 55.5 9.18359 54.9531 8.53516C54.4062 7.87891 53.625 7.55078 52.6094 7.55078ZM69.0625 19L63.25 3.8125H63.1562C63.2656 5.01562 63.3203 6.44531 63.3203 8.10156V19H61.4805V1.86719H64.4805L69.9062 16H70L75.4727 1.86719H78.4492V19H76.457V7.96094C76.457 6.69531 76.5117 5.32031 76.6211 3.83594H76.5273L70.668 19H69.0625ZM80.8281 6.15625H82.9141L85.7266 13.4805C86.3438 15.1523 86.7266 16.3594 86.875 17.1016H86.9688C87.0703 16.7031 87.2812 16.0234 87.6016 15.0625C87.9297 14.0938 88.9922 11.125 90.7891 6.15625H92.875L87.3555 20.7812C86.8086 22.2266 86.168 23.25 85.4336 23.8516C84.707 24.4609 83.8125 24.7656 82.75 24.7656C82.1562 24.7656 81.5703 24.6992 80.9922 24.5664V23.0078C81.4219 23.1016 81.9023 23.1484 82.4336 23.1484C83.7695 23.1484 84.7227 22.3984 85.293 20.8984L86.0078 19.0703L80.8281 6.15625ZM98.6875 9.47266H99.8594C101.008 9.47266 101.855 9.28125 102.402 8.89844C102.949 8.51562 103.223 7.91406 103.223 7.09375C103.223 6.28125 102.941 5.70312 102.379 5.35938C101.824 5.01562 100.961 4.84375 99.7891 4.84375H98.6875V9.47266ZM98.6875 12.4258V19H95.0547V1.86719H100.047C102.375 1.86719 104.098 2.29297 105.215 3.14453C106.332 3.98828 106.891 5.27344 106.891 7C106.891 8.00781 106.613 8.90625 106.059 9.69531C105.504 10.4766 104.719 11.0898 103.703 11.5352C106.281 15.3867 107.961 17.875 108.742 19H104.711L100.621 12.4258H98.6875ZM116.043 8.19531C115.285 8.19531 114.691 8.4375 114.262 8.92188C113.832 9.39844 113.586 10.0781 113.523 10.9609H118.539C118.523 10.0781 118.293 9.39844 117.848 8.92188C117.402 8.4375 116.801 8.19531 116.043 8.19531ZM116.547 19.2344C114.438 19.2344 112.789 18.6523 111.602 17.4883C110.414 16.3242 109.82 14.6758 109.82 12.543C109.82 10.3477 110.367 8.65234 111.461 7.45703C112.562 6.25391 114.082 5.65234 116.02 5.65234C117.871 5.65234 119.312 6.17969 120.344 7.23438C121.375 8.28906 121.891 9.74609 121.891 11.6055V13.3398H113.441C113.48 14.3555 113.781 15.1484 114.344 15.7188C114.906 16.2891 115.695 16.5742 116.711 16.5742C117.5 16.5742 118.246 16.4922 118.949 16.3281C119.652 16.1641 120.387 15.9023 121.152 15.543V18.3086C120.527 18.6211 119.859 18.8516 119.148 19C118.438 19.1562 117.57 19.2344 116.547 19.2344ZM133.938 15.1094C133.938 16.4531 133.469 17.4766 132.531 18.1797C131.602 18.8828 130.207 19.2344 128.348 19.2344C127.395 19.2344 126.582 19.168 125.91 19.0352C125.238 18.9102 124.609 18.7227 124.023 18.4727V15.5195C124.688 15.832 125.434 16.0938 126.262 16.3047C127.098 16.5156 127.832 16.6211 128.465 16.6211C129.762 16.6211 130.41 16.2461 130.41 15.4961C130.41 15.2148 130.324 14.9883 130.152 14.8164C129.98 14.6367 129.684 14.4375 129.262 14.2188C128.84 13.9922 128.277 13.7305 127.574 13.4336C126.566 13.0117 125.824 12.6211 125.348 12.2617C124.879 11.9023 124.535 11.4922 124.316 11.0312C124.105 10.5625 124 9.98828 124 9.30859C124 8.14453 124.449 7.24609 125.348 6.61328C126.254 5.97266 127.535 5.65234 129.191 5.65234C130.77 5.65234 132.305 5.99609 133.797 6.68359L132.719 9.26172C132.062 8.98047 131.449 8.75 130.879 8.57031C130.309 8.39062 129.727 8.30078 129.133 8.30078C128.078 8.30078 127.551 8.58594 127.551 9.15625C127.551 9.47656 127.719 9.75391 128.055 9.98828C128.398 10.2227 129.145 10.5703 130.293 11.0312C131.316 11.4453 132.066 11.832 132.543 12.1914C133.02 12.5508 133.371 12.9648 133.598 13.4336C133.824 13.9023 133.938 14.4609 133.938 15.1094ZM146.008 19L145.527 17.3242H145.34C144.957 17.9336 144.414 18.4062 143.711 18.7422C143.008 19.0703 142.207 19.2344 141.309 19.2344C139.77 19.2344 138.609 18.8242 137.828 18.0039C137.047 17.1758 136.656 15.9883 136.656 14.4414V5.89844H140.23V13.5508C140.23 14.4961 140.398 15.207 140.734 15.6836C141.07 16.1523 141.605 16.3867 142.34 16.3867C143.34 16.3867 144.062 16.0547 144.508 15.3906C144.953 14.7188 145.176 13.6094 145.176 12.0625V5.89844H148.75V19H146.008ZM164.23 19H160.656V11.3477C160.656 10.4023 160.496 9.69531 160.176 9.22656C159.863 8.75 159.367 8.51172 158.688 8.51172C157.773 8.51172 157.109 8.84766 156.695 9.51953C156.281 10.1914 156.074 11.2969 156.074 12.8359V19H152.5V5.89844H155.23L155.711 7.57422H155.91C156.262 6.97266 156.77 6.50391 157.434 6.16797C158.098 5.82422 158.859 5.65234 159.719 5.65234C161.68 5.65234 163.008 6.29297 163.703 7.57422H164.02C164.371 6.96484 164.887 6.49219 165.566 6.15625C166.254 5.82031 167.027 5.65234 167.887 5.65234C169.371 5.65234 170.492 6.03516 171.25 6.80078C172.016 7.55859 172.398 8.77734 172.398 10.457V19H168.812V11.3477C168.812 10.4023 168.652 9.69531 168.332 9.22656C168.02 8.75 167.523 8.51172 166.844 8.51172C165.969 8.51172 165.312 8.82422 164.875 9.44922C164.445 10.0742 164.23 11.0664 164.23 12.4258V19ZM181.504 8.19531C180.746 8.19531 180.152 8.4375 179.723 8.92188C179.293 9.39844 179.047 10.0781 178.984 10.9609H184C183.984 10.0781 183.754 9.39844 183.309 8.92188C182.863 8.4375 182.262 8.19531 181.504 8.19531ZM182.008 19.2344C179.898 19.2344 178.25 18.6523 177.062 17.4883C175.875 16.3242 175.281 14.6758 175.281 12.543C175.281 10.3477 175.828 8.65234 176.922 7.45703C178.023 6.25391 179.543 5.65234 181.48 5.65234C183.332 5.65234 184.773 6.17969 185.805 7.23438C186.836 8.28906 187.352 9.74609 187.352 11.6055V13.3398H178.902C178.941 14.3555 179.242 15.1484 179.805 15.7188C180.367 16.2891 181.156 16.5742 182.172 16.5742C182.961 16.5742 183.707 16.4922 184.41 16.3281C185.113 16.1641 185.848 15.9023 186.613 15.543V18.3086C185.988 18.6211 185.32 18.8516 184.609 19C183.898 19.1562 183.031 19.2344 182.008 19.2344ZM204.508 10.0234H210.332V18.3555C209.426 18.6445 208.504 18.8633 207.566 19.0117C206.629 19.1602 205.543 19.2344 204.309 19.2344C201.715 19.2344 199.695 18.4648 198.25 16.9258C196.805 15.3789 196.082 13.2148 196.082 10.4336C196.082 8.65234 196.438 7.09375 197.148 5.75781C197.867 4.41406 198.898 3.39062 200.242 2.6875C201.586 1.97656 203.16 1.62109 204.965 1.62109C206.793 1.62109 208.496 1.95703 210.074 2.62891L209.301 4.38672C207.754 3.73047 206.266 3.40234 204.836 3.40234C202.75 3.40234 201.121 4.02344 199.949 5.26562C198.777 6.50781 198.191 8.23047 198.191 10.4336C198.191 12.7461 198.754 14.5 199.879 15.6953C201.012 16.8906 202.672 17.4883 204.859 17.4883C206.047 17.4883 207.207 17.3516 208.34 17.0781V11.8047H204.508V10.0234ZM215.992 6.15625V14.4883C215.992 15.5352 216.23 16.3164 216.707 16.832C217.184 17.3477 217.93 17.6055 218.945 17.6055C220.289 17.6055 221.27 17.2383 221.887 16.5039C222.512 15.7695 222.824 14.5703 222.824 12.9062V6.15625H224.77V19H223.164L222.883 17.2773H222.777C222.379 17.9102 221.824 18.3945 221.113 18.7305C220.41 19.0664 219.605 19.2344 218.699 19.2344C217.137 19.2344 215.965 18.8633 215.184 18.1211C214.41 17.3789 214.023 16.1914 214.023 14.5586V6.15625H215.992ZM230.852 19H228.906V6.15625H230.852V19ZM228.742 2.67578C228.742 2.23047 228.852 1.90625 229.07 1.70312C229.289 1.49219 229.562 1.38672 229.891 1.38672C230.203 1.38672 230.473 1.49219 230.699 1.70312C230.926 1.91406 231.039 2.23828 231.039 2.67578C231.039 3.11328 230.926 3.44141 230.699 3.66016C230.473 3.87109 230.203 3.97656 229.891 3.97656C229.562 3.97656 229.289 3.87109 229.07 3.66016C228.852 3.44141 228.742 3.11328 228.742 2.67578ZM243.719 17.2773H243.613C242.715 18.582 241.371 19.2344 239.582 19.2344C237.902 19.2344 236.594 18.6602 235.656 17.5117C234.727 16.3633 234.262 14.7305 234.262 12.6133C234.262 10.4961 234.73 8.85156 235.668 7.67969C236.605 6.50781 237.91 5.92188 239.582 5.92188C241.324 5.92188 242.66 6.55469 243.59 7.82031H243.742L243.66 6.89453L243.613 5.99219V0.765625H245.559V19H243.977L243.719 17.2773ZM239.828 17.6055C241.156 17.6055 242.117 17.2461 242.711 16.5273C243.312 15.8008 243.613 14.6328 243.613 13.0234V12.6133C243.613 10.793 243.309 9.49609 242.699 8.72266C242.098 7.94141 241.133 7.55078 239.805 7.55078C238.664 7.55078 237.789 7.99609 237.18 8.88672C236.578 9.76953 236.277 11.0195 236.277 12.6367C236.277 14.2773 236.578 15.5156 237.18 16.3516C237.781 17.1875 238.664 17.6055 239.828 17.6055ZM255.121 19.2344C253.223 19.2344 251.723 18.6562 250.621 17.5C249.527 16.3438 248.98 14.7383 248.98 12.6836C248.98 10.6133 249.488 8.96875 250.504 7.75C251.527 6.53125 252.898 5.92188 254.617 5.92188C256.227 5.92188 257.5 6.45312 258.438 7.51562C259.375 8.57031 259.844 9.96484 259.844 11.6992V12.9297H250.996C251.035 14.4375 251.414 15.582 252.133 16.3633C252.859 17.1445 253.879 17.5352 255.191 17.5352C256.574 17.5352 257.941 17.2461 259.293 16.668V18.4023C258.605 18.6992 257.953 18.9102 257.336 19.0352C256.727 19.168 255.988 19.2344 255.121 19.2344ZM254.594 7.55078C253.562 7.55078 252.738 7.88672 252.121 8.55859C251.512 9.23047 251.152 10.1602 251.043 11.3477H257.758C257.758 10.1211 257.484 9.18359 256.938 8.53516C256.391 7.87891 255.609 7.55078 254.594 7.55078Z" fill="white"/>
</svg>
